<svg xmlns="http://www.w3.org/2000/svg" height="1024" preserveAspectRatio="none" style="display: block;" version="1.1" viewBox="0 0 2048 2048" width="1024">
<defs>
  <linearGradient id="cyanGrad" x1="0%" y1="0%" x2="100%" y2="100%">
    <stop offset="0%" style="stop-color:#00f5ff;stop-opacity:1"/>
    <stop offset="100%" style="stop-color:#007fff;stop-opacity:1"/>
  </linearGradient>
  <filter id="glow" x="-20%" y="-20%" width="140%" height="140%">
    <feGaussianBlur stdDeviation="6" result="blur"/>
    <feMerge><feMergeNode in="blur"/><feMergeNode in="SourceGraphic"/></feMerge>
  </filter>
  <clipPath id="hexClip">
    <path d="M 1026.56 517.851 C 1033.12 519.107 1170.84 601.014 1186.07 610.288 C 1192.52 636.51 1205.85 675.615 1213.88 702.315 C 1237.94 691.338 1262.05 680.492 1286.22 669.778 C 1294.31 674.355 1303.02 678.915 1311.34 683.098 C 1363.35 709.249 1413.62 739.562 1465.48 765.81 L 1465 948.967 C 1446.02 971.24 1417.48 998.783 1396.46 1020.21 C 1419.17 1043.92 1442.06 1067.48 1465.11 1090.87 L 1465.17 1278.99 C 1449.73 1288.45 1431.15 1297.83 1415 1306.7 L 1289.84 1374.19 C 1263.34 1364.5 1237.4 1353.55 1210.71 1344.12 C 1203.4 1374.85 1191.53 1404.63 1184.37 1436 C 1177.51 1440.43 1170.35 1444.91 1163.24 1448.91 C 1118.09 1474.29 1073.77 1503.56 1028.21 1527.97 C 975.57 1501.33 919.268 1466.54 866.698 1438 C 859.526 1409.98 847.163 1374.2 838.047 1346.11 C 812.225 1355.04 786.6 1364.53 761.19 1374.57 C 720.429 1355.15 680.127 1330.05 639.515 1309.77 C 621.156 1300.61 600.104 1289.71 582.944 1278.82 L 582.968 1091.22 C 606.877 1067.58 628.594 1042.99 651.884 1019.6 C 643.911 1012.61 633.422 1001.15 625.654 993.33 C 611.518 979.103 596.587 964.3 583.124 949.508 L 583.03 766.13 C 589.543 762.115 597.111 757.688 603.903 754.178 C 656.307 727.098 707.978 696.927 760.391 670.068 L 837.188 701.5 C 847.514 673.226 857.804 635.778 866.779 606.371 C 919.678 576.667 974.06 548.315 1026.56 517.851 z"/>
  </clipPath>
</defs>

<!-- 1) BLACK BORDER: same hex path scaled up 5.5% from center — sits OUTSIDE cyan frame, no clip -->
<path d="M 1026.56 517.851 C 1033.12 519.107 1170.84 601.014 1186.07 610.288 C 1192.52 636.51 1205.85 675.615 1213.88 702.315 C 1237.94 691.338 1262.05 680.492 1286.22 669.778 C 1294.31 674.355 1303.02 678.915 1311.34 683.098 C 1363.35 709.249 1413.62 739.562 1465.48 765.81 L 1465 948.967 C 1446.02 971.24 1417.48 998.783 1396.46 1020.21 C 1419.17 1043.92 1442.06 1067.48 1465.11 1090.87 L 1465.17 1278.99 C 1449.73 1288.45 1431.15 1297.83 1415 1306.7 L 1289.84 1374.19 C 1263.34 1364.5 1237.4 1353.55 1210.71 1344.12 C 1203.4 1374.85 1191.53 1404.63 1184.37 1436 C 1177.51 1440.43 1170.35 1444.91 1163.24 1448.91 C 1118.09 1474.29 1073.77 1503.56 1028.21 1527.97 C 975.57 1501.33 919.268 1466.54 866.698 1438 C 859.526 1409.98 847.163 1374.2 838.047 1346.11 C 812.225 1355.04 786.6 1364.53 761.19 1374.57 C 720.429 1355.15 680.127 1330.05 639.515 1309.77 C 621.156 1300.61 600.104 1289.71 582.944 1278.82 L 582.968 1091.22 C 606.877 1067.58 628.594 1042.99 651.884 1019.6 C 643.911 1012.61 633.422 1001.15 625.654 993.33 C 611.518 979.103 596.587 964.3 583.124 949.508 L 583.03 766.13 C 589.543 762.115 597.111 757.688 603.903 754.178 C 656.307 727.098 707.978 696.927 760.391 670.068 L 837.188 701.5 C 847.514 673.226 857.804 635.778 866.779 606.371 C 919.678 576.667 974.06 548.315 1026.56 517.851 z"
  fill="rgb(0,0,0)"
  transform="translate(1024,1024) scale(1.06) translate(-1024,-1024)"/>

<!-- 2) BLACK HEX BACKGROUND clipped to exact hex -->
<path d="M 0 0 L 2048 0 L 2048 2048 L 0 2048 L 0 0 z" fill="rgb(0,0,0)" clip-path="url(#hexClip)"/>

<!-- 3) CYAN FRAME -->
<path d="M 1026.56 517.851 C 1033.12 519.107 1170.84 601.014 1186.07 610.288 C 1192.52 636.51 1205.85 675.615 1213.88 702.315 C 1237.94 691.338 1262.05 680.492 1286.22 669.778 C 1294.31 674.355 1303.02 678.915 1311.34 683.098 C 1363.35 709.249 1413.62 739.562 1465.48 765.81 L 1465 948.967 C 1446.02 971.24 1417.48 998.783 1396.46 1020.21 C 1419.17 1043.92 1442.06 1067.48 1465.11 1090.87 L 1465.17 1278.99 C 1449.73 1288.45 1431.15 1297.83 1415 1306.7 L 1289.84 1374.19 C 1263.34 1364.5 1237.4 1353.55 1210.71 1344.12 C 1203.4 1374.85 1191.53 1404.63 1184.37 1436 C 1177.51 1440.43 1170.35 1444.91 1163.24 1448.91 C 1118.09 1474.29 1073.77 1503.56 1028.21 1527.97 C 975.57 1501.33 919.268 1466.54 866.698 1438 C 859.526 1409.98 847.163 1374.2 838.047 1346.11 C 812.225 1355.04 786.6 1364.53 761.19 1374.57 C 720.429 1355.15 680.127 1330.05 639.515 1309.77 C 621.156 1300.61 600.104 1289.71 582.944 1278.82 L 582.968 1091.22 C 606.877 1067.58 628.594 1042.99 651.884 1019.6 C 643.911 1012.61 633.422 1001.15 625.654 993.33 C 611.518 979.103 596.587 964.3 583.124 949.508 L 583.03 766.13 C 589.543 762.115 597.111 757.688 603.903 754.178 C 656.307 727.098 707.978 696.927 760.391 670.068 L 837.188 701.5 C 847.514 673.226 857.804 635.778 866.779 606.371 C 919.678 576.667 974.06 548.315 1026.56 517.851 z"
  fill="url(#cyanGrad)" filter="url(#glow)"/>

<!-- 4) INNER BLACK FILL -->
<path d="M 1023.75 601.849 C 1031.26 603.75 1086.97 636.603 1097.88 642.447 C 1196.6 695.29 1293.9 752.27 1392.55 805.287 L 1392.54 1236.61 C 1269.62 1302.52 1149.3 1376.56 1027.37 1443.72 C 1022.41 1446.32 1016.15 1440.78 1011.23 1437.89 C 923.071 1385.36 833.986 1334.39 744.02 1285.01 C 715.398 1269.38 686.588 1252.19 657.437 1237.67 C 658.643 1188.35 657.832 1135.75 657.872 1086.23 L 658.077 804.838 C 682.671 790.487 710.363 776 735.441 762.072 L 930.822 653.954 C 960.564 637.437 995.088 619.307 1023.75 601.849 z"
  fill="rgb(0,0,0)"/>

<!-- 5) LETTER M -->
<path d="M 1020.63 753.605 C 1031.94 762.382 1050.99 784.193 1062.48 795.527 C 1105.11 838.098 1147.46 880.948 1189.53 924.074 L 1317.61 789.846 C 1333.92 798.937 1351.05 808.172 1366.89 817.932 L 1367.02 1221.98 C 1336.51 1240.25 1302 1259.7 1270.98 1277.18 C 1269.76 1186.01 1270.8 1092.1 1270.77 1000.75 L 1270.61 997.868 L 1269.4 997.643 C 1244.16 1025.3 1217.96 1051.85 1193 1079.49 C 1172.74 1056.23 1138.12 1020.32 1116.1 998.727 C 1117.57 1045.4 1116.65 1096.7 1116.61 1143.65 L 1117.04 1364.98 C 1113.18 1366.85 1109.37 1369.28 1105.61 1371.39 C 1077.34 1387.22 1049.65 1404.68 1021 1419.79 C 1019.95 1379.01 1020.79 1334.87 1020.8 1293.79 L 1020.86 1058.42 L 1020.58 856.071 C 1020.53 822.898 1019.62 786.424 1020.63 753.605 z"
  fill="url(#cyanGrad)" filter="url(#glow)"/>

<!-- 6) LETTER T -->
<path d="M 682.701 809.983 L 1007.68 809.884 C 1000.04 840.144 990.445 871.78 981.886 901.944 L 887.775 901.937 L 887.741 1216.5 L 887.788 1336.39 L 792.18 1285.81 C 791.102 1241.28 792.157 1192.74 792.213 1147.89 L 791.974 901.647 C 756.123 902.208 718.754 901.641 682.779 901.62 L 682.701 809.983 z"
  fill="url(#cyanGrad)" filter="url(#glow)"/>
</svg>
